HIERARCHY
ROOT SpineBase
{
  OFFSET 0.000000 0.000000 0.000000
  CHANNELS 6 Xposition Yposition Zposition Zrotation Xrotation Yrotation
  JOINT SpineMid
  {
    OFFSET 0.000000 31.128660 0.000000
    CHANNELS 3 Zrotation Xrotation Yrotation
    JOINT SpineShoulder
    {
      OFFSET -0.323489 23.150357 -0.684814
      CHANNELS 3 Zrotation Xrotation Yrotation
      JOINT Neck
      {
        OFFSET -0.226331 7.687250 -0.511477
        CHANNELS 3 Zrotation Xrotation Yrotation
        JOINT Head
        {
          OFFSET -4.338488 7.431190 7.204686
          CHANNELS 3 Zrotation Xrotation Yrotation
          End Site
          {
            OFFSET 0 0 0
          }
        }
      }
      JOINT ShoulderLeft
      {
        OFFSET -5.437064 -6.132085 5.415187
        CHANNELS 3 Zrotation Xrotation Yrotation
        JOINT ElbowLeft
        {
          OFFSET -1.994794 -18.726993 -15.643931
          CHANNELS 3 Zrotation Xrotation Yrotation
          JOINT WristLeft
          {
            OFFSET -3.697843 -23.087568 -2.728790
            CHANNELS 3 Zrotation Xrotation Yrotation
            JOINT HandLeft
            {
              OFFSET 1.171162 -13.995482 -0.137725
              CHANNELS 3 Zrotation Xrotation Yrotation
              JOINT HandTipLeft
              {
                OFFSET 0.426628 -3.843801 1.718935
                CHANNELS 3 Zrotation Xrotation Yrotation
                End Site
                {
                  OFFSET 0 0 0
                }
              }
              JOINT ThumbLeft
              {
                OFFSET -0.332227 1.471163 -3.875454
                CHANNELS 3 Zrotation Xrotation Yrotation
                End Site
                {
                  OFFSET 0 0 0
                }
              }
            }
          }
        }
      }
      JOINT ShoulderRight
      {
        OFFSET -0.176630 -2.658591 -14.016337
        CHANNELS 3 Zrotation Xrotation Yrotation
        JOINT ElbowRight
        {
          OFFSET -2.706232 -22.511765 -7.916497
          CHANNELS 3 Zrotation Xrotation Yrotation
          JOINT WristRight
          {
            OFFSET -5.249680 -22.349449 3.848080
            CHANNELS 3 Zrotation Xrotation Yrotation
            JOINT HandRight
            {
              OFFSET -0.535765 -7.231238 2.499877
              CHANNELS 3 Zrotation Xrotation Yrotation
              JOINT HandTipRight
              {
                OFFSET -1.732948 -6.022252 0.566314
                CHANNELS 3 Zrotation Xrotation Yrotation
                End Site
                {
                  OFFSET 0 0 0
                }
              }
              JOINT ThumbRight
              {
                OFFSET -4.281715 1.106622 -1.662184
                CHANNELS 3 Zrotation Xrotation Yrotation
                End Site
                {
                  OFFSET 0 0 0
                }
              }
            }
          }
        }
      }
    }
  }
  JOINT HipLeft
  {
    OFFSET -2.985189 0.945440 1.761303
    CHANNELS 3 Zrotation Xrotation Yrotation
    JOINT KneeLeft
    {
      OFFSET -5.967971 -25.516773 -7.375556
      CHANNELS 3 Zrotation Xrotation Yrotation
      JOINT AnkleLeft
      {
        OFFSET 13.681625 -34.633961 3.746286
        CHANNELS 3 Zrotation Xrotation Yrotation
        JOINT FootLeft
        {
          OFFSET -8.768411 -3.614133 -3.850299
          CHANNELS 3 Zrotation Xrotation Yrotation
          End Site
          {
            OFFSET 0 0 0
          }
        }
      }
    }
  }
  JOINT HipRight
  {
    OFFSET 0.177160 1.177591 -7.930058
    CHANNELS 3 Zrotation Xrotation Yrotation
    JOINT KneeRight
    {
      OFFSET -0.436492 -26.105812 -3.247663
      CHANNELS 3 Zrotation Xrotation Yrotation
      JOINT AnkleRight
      {
        OFFSET 9.274244 -31.498065 -1.962609
        CHANNELS 3 Zrotation Xrotation Yrotation
        JOINT FootRight
        {
          OFFSET -1.333217 -7.989419 2.605014
          CHANNELS 3 Zrotation Xrotation Yrotation
          End Site
          {
            OFFSET 0 0 0
          }
        }
      }
    }
  }
}
MOTION
Frames: 12
Frame Time: 0.033333
149.113152 64.820648 329.612240 -0.000000 0.000000 71.928183 -0.000000 0.000000 -71.928183 -0.000000 0.000000 0.000000 -0.000000 0.000000 0.000000 0.000000 0.000000 0.000000 -0.000000 0.000000 0.000000 -0.000000 0.000000 0.000000 -0.000000 0.000000 0.000000 -0.000000 0.000000 0.000000 0.000000 0.000000 0.000000 0.000000 0.000000 0.000000 -0.000000 0.000000 0.000000 -0.000000 0.000000 0.000000 -0.000000 0.000000 0.000000 -0.000000 0.000000 0.000000 0.000000 0.000000 0.000000 0.000000 0.000000 0.000000 -0.000000 0.000000 -71.928183 -0.000000 0.000000 0.000000 -0.000000 0.000000 0.000000 0.000000 0.000000 0.000000 -0.000000 0.000000 -71.928183 -0.000000 0.000000 0.000000 -0.000000 0.000000 0.000000 0.000000 0.000000 0.000000
148.977862 64.748380 328.857357 -0.043035 0.633441 73.553198 -0.595341 -0.220614 -73.554106 -0.000000 0.000000 0.000000 -0.000000 0.000000 0.000000 0.000000 0.000000 0.000000 -0.000000 0.000000 0.000000 -0.000000 0.000000 0.000000 0.463290 -0.983845 -0.082892 1.443434 2.890512 1.097738 0.000000 0.000000 0.000000 0.000000 0.000000 0.000000 0.700158 -0.890711 -0.134165 -1.007641 -0.097788 0.325396 2.353110 2.601515 0.342198 -2.048519 -2.846976 -0.256261 0.000000 0.000000 0.000000 0.000000 0.000000 0.000000 -1.560151 -0.173752 -73.251660 0.322953 0.910360 -0.308333 -3.942812 2.600583 -1.822404 0.000000 0.000000 0.000000 -2.208003 -1.132906 -73.595111 -0.419507 1.804608 0.028562 -3.204193 -2.463413 -0.694675 0.000000 0.000000 0.000000
148.872450 64.692388 328.245921 -0.082233 1.143798 74.794360 -0.163292 -0.057468 -74.782104 0.069409 -0.971164 -0.010927 -0.537959 -0.620244 0.157799 0.000000 0.000000 0.000000 -0.000000 0.000000 0.000000 -0.000000 0.000000 0.000000 0.830714 -1.719797 -0.139568 2.813012 5.450742 2.004201 0.000000 0.000000 0.000000 0.000000 0.000000 0.000000 1.245203 -1.560003 -0.234837 -1.803873 -0.233956 0.596934 4.351606 4.860831 0.530212 -3.684118 -5.346361 -0.491118 0.000000 0.000000 0.000000 0.000000 0.000000 0.000000 -3.171300 -0.386179 -74.180200 0.563397 2.011693 -0.640771 -6.126674 4.089338 -2.716699 0.000000 0.000000 0.000000 -4.009948 -1.948965 -74.895777 -0.751426 3.235325 0.060375 -6.524506 -4.148683 -1.638586 0.000000 0.000000 0.000000
148.796916 64.652674 327.777930 -0.117550 1.530278 75.701750 -0.199846 -0.060271 -75.685112 0.100073 -0.409996 0.012166 -0.590091 -1.646931 0.111605 0.000000 0.000000 0.000000 0.007880 -0.911772 -0.026244 -0.000000 0.000000 0.000000 1.099894 -2.200084 -0.173725 3.926849 7.457096 2.667782 0.000000 0.000000 0.000000 0.000000 0.000000 0.000000 1.641597 -2.915662 -0.307700 -2.388094 -0.408302 0.805327 5.897367 6.696690 0.597599 -4.795772 -7.463175 -0.631560 0.000000 0.000000 0.000000 0.000000 0.000000 0.000000 -4.837082 -0.665604 -74.764193 0.723182 3.309489 -0.997300 -7.190502 4.794411 -3.062563 0.000000 0.000000 0.000000 -5.362245 -2.502480 -75.860039 -1.774534 3.867331 0.071399 -9.046100 -4.434163 -2.607681 0.000000 0.000000 0.000000
148.751261 64.629236 327.453386 -0.148951 1.792330 76.310005 -0.204749 -0.048722 -76.290379 0.114782 -0.467747 0.014257 -0.486667 -1.837495 0.039353 0.000000 0.000000 0.000000 0.034517 -1.114175 -0.030153 -0.000000 0.000000 0.000000 1.268886 -2.419090 -0.188023 4.596942 8.675274 3.050394 0.000000 0.000000 0.000000 0.000000 0.000000 0.000000 1.899189 -3.333128 -0.349747 -2.760538 -0.620267 0.944163 6.917848 8.049300 0.583663 -5.294909 -9.172333 -0.617206 0.000000 0.000000 0.000000 0.000000 0.000000 0.000000 -6.560159 -1.038716 -75.040886 0.803904 4.809588 -1.377155 -7.391902 4.862223 -2.997282 0.000000 0.000000 0.000000 -6.237390 -2.832546 -76.509470 -2.007460 4.377053 0.068746 -12.106082 -3.795930 -3.672316 0.000000 0.000000 0.000000
148.735485 64.622074 327.272287 -0.176404 1.929591 76.640632 -0.177554 -0.023800 -76.619536 0.120164 -0.485848 0.015157 0.073194 -1.265577 -0.031561 0.000000 0.000000 0.000000 0.073194 -1.265577 -0.031561 -0.000000 0.000000 0.000000 1.336178 -2.373104 -0.183944 4.681040 8.923517 3.127686 0.000000 0.000000 0.000000 0.000000 0.000000 0.000000 2.010479 -3.469742 -0.370916 -2.921839 -0.869182 1.009889 7.376991 8.885858 0.524410 -5.129639 -10.462228 -0.409699 0.000000 0.000000 0.000000 0.000000 0.000000 0.000000 -8.341140 -1.532031 -75.036905 0.754758 7.630806 -1.342178 -6.649489 3.258262 -3.085363 0.000000 0.000000 0.000000 -6.619580 -2.964479 -76.858161 -2.066225 4.484574 0.035487 -14.912407 -1.835026 -4.625952 0.000000 0.000000 0.000000
148.727073 64.599001 327.226250 -0.221256 1.886239 76.670377 -0.040587 0.044537 -76.649784 0.111957 -0.447028 0.014105 0.161059 -1.410112 -0.028796 0.000000 0.000000 0.000000 0.161059 -1.410112 -0.028796 -0.000000 0.000000 0.000000 1.282698 -2.011847 -0.158350 3.786685 8.443471 2.780359 0.000000 0.000000 0.000000 0.000000 0.000000 0.000000 2.018965 -3.350229 -0.374492 -2.939802 -1.157912 0.992093 7.205507 9.307012 0.411635 -2.769585 -12.151547 0.618810 0.000000 0.000000 0.000000 0.000000 0.000000 0.000000 -11.483114 -2.707484 -74.517363 0.616123 12.352407 -1.534808 -6.086392 1.546743 -3.408784 0.000000 0.000000 0.000000 -6.319459 -2.934892 -76.883939 -1.863066 3.977489 -0.071288 -19.945981 4.978323 -6.032619 0.000000 0.000000 0.000000
148.760441 64.624883 327.366751 -0.256887 1.676516 76.623686 0.134050 0.124546 -76.605638 0.092459 -0.359587 0.011848 0.998255 -1.122181 -0.517597 0.000000 0.000000 0.000000 0.253785 -1.476303 -0.023291 -0.000000 0.000000 0.000000 1.661656 -2.048068 -0.157889 2.660343 7.014845 2.399149 0.000000 0.000000 0.000000 0.000000 0.000000 0.000000 1.811457 -2.806085 -0.354839 -2.622793 -1.605427 0.901541 6.515112 8.571783 0.375221 -0.852830 -12.390749 1.400667 0.000000 0.000000 0.000000 0.000000 0.000000 0.000000 -14.066078 -3.778617 -74.049728 0.450602 17.585734 -1.266519 -0.227138 -5.118888 -0.502016 0.000000 0.000000 0.000000 -5.547251 -2.699578 -76.807911 -1.375001 3.162594 -0.206539 -22.129333 11.890232 -6.236486 0.000000 0.000000 0.000000
148.860978 64.692701 327.722933 -0.257790 1.359489 76.113947 0.261015 0.190434 -76.100157 0.063775 -0.241973 0.009008 1.443732 -0.688849 -0.656610 0.000000 0.000000 0.000000 0.315689 -1.416734 -0.016791 -0.000000 0.000000 0.000000 1.406497 -1.225385 -0.101252 0.166595 4.024091 1.085716 0.000000 0.000000 0.000000 0.000000 0.000000 0.000000 1.405486 -1.943460 -0.305495 -2.058670 -1.983683 0.729101 5.785515 7.498632 0.424575 0.173050 -9.259061 0.835913 0.000000 0.000000 0.000000 0.000000 0.000000 0.000000 -15.091807 -4.570132 -73.418946 0.397484 20.257645 -1.085280 1.980670 -7.926526 0.626075 0.000000 0.000000 0.000000 -4.171307 -2.148140 -76.236191 -1.233543 1.783427 -0.303079 -23.339706 14.375550 -6.286806 0.000000 0.000000 0.000000
149.031738 64.822294 328.230901 -0.168973 0.941800 75.357742 0.341012 0.261549 -75.349154 0.031774 -0.102192 0.007502 1.799079 -0.228524 -0.841719 0.000000 0.000000 0.000000 0.303720 -1.235746 -0.012891 -0.000000 0.000000 0.000000 1.139147 0.679677 0.038875 0.779390 -2.173536 0.682711 0.000000 0.000000 0.000000 0.000000 0.000000 0.000000 0.303720 -1.235746 -0.012891 -0.832644 -1.826322 0.271178 4.261957 6.316105 0.306903 2.279598 -9.596289 1.742055 0.000000 0.000000 0.000000 0.000000 0.000000 0.000000 -14.832508 -4.960531 -72.720457 0.395620 21.961874 -0.525742 7.555090 -13.226120 4.948459 0.000000 0.000000 0.000000 -2.639071 -1.249315 -75.399135 -0.613941 0.480606 -0.385877 -21.401708 16.041429 -5.848967 0.000000 0.000000 0.000000
149.133235 64.903741 328.424909 -0.128732 0.879288 74.284429 0.286512 0.270094 -74.277161 0.024011 -0.032812 0.008320 2.002368 0.080455 -0.897066 0.000000 0.000000 0.000000 0.286809 -1.195513 -0.013115 -0.000000 0.000000 0.000000 0.704501 2.331137 0.173709 1.713064 -7.119621 0.540240 0.000000 0.000000 0.000000 0.000000 0.000000 0.000000 0.286809 -1.195513 -0.013115 -0.874132 -1.750060 0.246156 2.308644 7.435651 -0.327812 4.900586 -12.093588 3.309813 0.000000 0.000000 0.000000 0.000000 0.000000 0.000000 -16.243062 -6.105585 -71.569018 0.075685 25.599724 -0.059135 30.330325 -23.552964 22.077545 0.000000 0.000000 0.000000 -1.892527 -0.683707 -74.279103 -0.019777 -0.222924 -0.414375 -17.608201 15.400930 -5.188348 0.000000 0.000000 0.000000
149.191987 64.990379 328.461742 -0.114646 0.984378 72.948003 0.146353 0.224770 -72.940420 0.030591 -0.033885 0.009110 2.034488 0.322676 -0.844190 0.000000 0.000000 0.000000 0.255708 -1.156401 -0.014443 -0.000000 0.000000 0.000000 0.135376 4.466823 0.367189 3.789335 -13.350246 0.977066 0.000000 0.000000 0.000000 0.000000 0.000000 0.000000 0.255708 -1.156401 -0.014443 -0.798028 -1.604212 0.227341 0.612317 7.655778 -0.768088 8.378843 -12.648560 4.597375 0.000000 0.000000 0.000000 0.000000 0.000000 0.000000 -17.063130 -7.247218 -70.322885 -0.624397 28.117271 0.536681 52.364036 -26.119201 39.818171 0.000000 0.000000 0.000000 -0.907497 -0.398253 -72.950172 0.288754 -1.087047 -0.335279 -12.096276 11.679990 -4.010913 0.000000 0.000000 0.000000
